HIERARCHY
ROOT Hips
{
	OFFSET	0.00	0.00	0.00
	CHANNELS 6 Xposition Yposition Zposition Zrotation Xrotation Yrotation
	JOINT LeftUpLeg
	{
		OFFSET	 0.126116	-0.014019	-0.065224
		CHANNELS 3 Zrotation Xrotation Yrotation
		JOINT LeftLeg
		{
			OFFSET	 0.000000	 0.000000	 0.569914
			CHANNELS 3 Zrotation Xrotation Yrotation
			JOINT LeftFoot
			{
				OFFSET	 0.000000	 0.000000	 0.544423
				CHANNELS 3 Zrotation Xrotation Yrotation
				JOINT LeftToeBase
				{
					OFFSET	 0.000000	 0.000000	 0.207117
					CHANNELS 3 Zrotation Xrotation Yrotation
					End Site
					{
						OFFSET	 0.000000	 0.000000	 0.207117
					}
				}
			}
		}
	}
	JOINT RightUpLeg
	{
		OFFSET	-0.124023	-0.008373	-0.065224
		CHANNELS 3 Zrotation Xrotation Yrotation
		JOINT RightLeg
		{
			OFFSET	 0.000000	 0.000000	 0.570047
			CHANNELS 3 Zrotation Xrotation Yrotation
			JOINT RightFoot
			{
				OFFSET	 0.000000	 0.000000	 0.544354
				CHANNELS 3 Zrotation Xrotation Yrotation
				JOINT RightToeBase
				{
					OFFSET	 0.000000	 0.000000	 0.207540
					CHANNELS 3 Zrotation Xrotation Yrotation
					End Site
					{
						OFFSET	 0.000000	 0.000000	 0.207540
					}
				}
			}
		}
	}
	JOINT Spine
	{
		OFFSET	 0.000184	-0.007763	 0.117403
		CHANNELS 3 Zrotation Xrotation Yrotation
		JOINT Spine1
		{
			OFFSET	 0.000000	 0.000000	 0.137269
			CHANNELS 3 Zrotation Xrotation Yrotation
			JOINT Spine2
			{
				OFFSET	 0.000000	 0.000000	 0.156879
				CHANNELS 3 Zrotation Xrotation Yrotation
				JOINT LeftShoulder
				{
					OFFSET	 0.080501	-0.002496	 0.160144
					CHANNELS 3 Zrotation Xrotation Yrotation
					JOINT LeftArm
					{
						OFFSET	 0.000000	 0.000000	 0.164363
						CHANNELS 3 Zrotation Xrotation Yrotation
						JOINT LeftForeArm
						{
							OFFSET	 0.000000	 0.000000	 0.364576
							CHANNELS 3 Zrotation Xrotation Yrotation
							JOINT LeftHand
							{
								OFFSET	 0.000000	 0.000000	 0.360812
								CHANNELS 3 Zrotation Xrotation Yrotation
								JOINT LeftHandIndex1
								{
									OFFSET	 0.000000	 0.000000	 0.086006
									CHANNELS 3 Zrotation Xrotation Yrotation
									JOINT LeftHandIndex2
									{
										OFFSET	 0.000000	 0.000000	 0.047237
										CHANNELS 3 Zrotation Xrotation Yrotation
										JOINT LeftHandIndex3
										{
											OFFSET	-0.004284	-0.000551	 0.038165
											CHANNELS 3 Zrotation Xrotation Yrotation
											End Site
											{
												OFFSET	-0.004284	-0.000551	 0.038165
											}
										}
									}
								}
							}
						}
					}
				}
				JOINT Neck
				{
					OFFSET	 0.000000	 0.000000	 0.176489
					CHANNELS 3 Zrotation Xrotation Yrotation
					JOINT Head
					{
						OFFSET	 0.000000	-0.001747	 0.077940
						CHANNELS 3 Zrotation Xrotation Yrotation
						End Site
						{
							OFFSET	 0.000000	-0.001747	 0.077940
						}
					}
				}
				JOINT RightShoulder
				{
					OFFSET	-0.080363	 0.000306	 0.159706
					CHANNELS 3 Zrotation Xrotation Yrotation
					JOINT RightArm
					{
						OFFSET	 0.000000	 0.000000	 0.164196
						CHANNELS 3 Zrotation Xrotation Yrotation
						JOINT RightForeArm
						{
							OFFSET	 0.000000	 0.000000	 0.365611
							CHANNELS 3 Zrotation Xrotation Yrotation
							JOINT RightHand
							{
								OFFSET	 0.000000	 0.000000	 0.360648
								CHANNELS 3 Zrotation Xrotation Yrotation
								JOINT RightHandIndex1
								{
									OFFSET	 0.000000	 0.000000	 0.069977
									CHANNELS 3 Zrotation Xrotation Yrotation
									JOINT RightHandIndex2
									{
										OFFSET	 0.000000	 0.000000	 0.052305
										CHANNELS 3 Zrotation Xrotation Yrotation
										JOINT RightHandIndex3
										{
											OFFSET	 0.009002	-0.000782	 0.042196
											CHANNELS 3 Zrotation Xrotation Yrotation
											End Site
											{
												OFFSET	 0.009002	-0.000782	 0.042196
											}
										}
									}
								}
							}
						}
					}
				}
			}
		}
	}
}
MOTION
Frames:    5
Frame Time: 0.03333334
-0.716912	-0.028425	 1.251522	 168.707600	-6.666269	 2.524597	-2.428620	-0.844904	 178.193900	-2.013145	-33.143970	-1.902560	-50.342370	 81.119400	 39.542870	-2.385833	 28.452760	 0.000004	-21.421540	-5.161342	-171.042300	 10.468870	-33.952160	 6.017987	 26.148770	 82.926260	-27.837150	 2.384659	 28.388700	-0.000001	 9.756766	-0.471665	-17.165990	 6.385417	 13.718370	-7.052061	 19.294460	-3.773144	 16.687720	-91.776150	 78.527400	 180.000000	-44.287270	 37.689740	-42.772270	-33.840770	 25.045980	-60.669810	-40.115180	-38.704860	-23.286530	-4.130354	 21.526190	 0.991307	-5.167926	 0.731697	 3.519349	-1.378229	 35.397820	-2.634230	 14.715630	 5.499410	-3.199135	 10.936630	-14.296140	-2.977044	 89.782070	 78.203830	-180.000000	-62.427460	-1.568550	 81.896370	 5.600467	 6.085188	 136.838900	 5.613609	 15.423370	 20.609970	 5.716295	 19.173350	-3.684826	 5.027458	 0.246833	-9.377971	-2.350882	 35.473990	 5.254307
-0.719413	-0.028296	 1.252216	 168.107900	-7.046164	 2.802499	-3.114878	-0.056776	 178.267300	-1.724007	-33.030970	-1.738811	-51.914940	 81.234440	 40.830520	-2.385833	 28.452760	 0.000004	-22.223560	-4.505627	-170.831800	 10.713500	-33.360400	 6.063920	 24.388810	 82.757980	-26.403280	 2.384659	 28.388700	-0.000001	 11.938800	-0.354013	-18.328200	 7.574304	 14.301670	-8.071926	 19.337310	-5.333423	 18.358230	-91.776120	 78.527380	 179.999900	-47.749630	 34.193170	-49.598000	-38.903880	 21.938650	-48.799630	-41.531440	-38.866070	-24.252740	-4.130354	 21.526190	 0.991307	-5.167926	 0.731697	 3.519349	-1.378229	 35.397820	-2.634230	 14.992300	 5.211452	-4.180132	 10.638090	-15.537500	-3.980431	 89.782140	 78.203890	 180.000000	-61.493100	-2.793320	 83.552860	 6.598767	 5.297390	 135.067600	 1.754599	 13.719200	 20.457580	 5.716295	 19.173350	-3.684826	 5.027458	 0.246833	-9.377971	-2.350882	 35.473990	 5.254307
-0.721636	-0.027895	 1.252794	 167.663400	-7.238192	 2.746175	-3.767245	 0.336672	 178.681800	-1.506794	-32.896720	-1.614333	-51.777960	 81.455120	 40.454960	-2.385833	 28.452760	 0.000004	-22.791940	-4.504874	-170.498600	 10.941960	-33.180370	 6.163517	 23.340150	 82.672390	-25.560600	 2.384659	 28.388700	-0.000001	 13.766670	-0.656503	-18.821620	 8.751240	 14.674610	-8.783069	 19.299510	-6.376977	 18.910830	-91.776240	 78.527380	-180.000000	-50.037900	 32.572990	-55.401100	-42.543840	 18.298410	-38.857750	-42.795600	-39.015460	-25.095430	-4.130354	 21.526190	 0.991307	-5.167926	 0.731697	 3.519349	-1.378229	 35.397820	-2.634230	 15.122920	 5.583917	-4.674169	 10.501400	-17.067060	-3.843090	 89.782100	 78.203900	 180.000000	-59.385970	-3.854195	 85.437260	 7.609803	 4.436332	 132.923700	-1.269704	 12.252110	 19.858690	 5.716295	 19.173350	-3.684826	 5.027458	 0.246833	-9.377971	-2.350882	 35.473990	 5.254307
-0.724316	-0.027316	 1.253528	 167.132500	-7.472717	 2.536159	-4.511620	 0.692509	 179.343900	-1.250733	-32.677170	-1.466271	-49.724650	 81.561820	 38.112600	-2.385833	 28.452760	 0.000004	-23.328500	-4.785757	-170.008400	 11.232790	-33.210490	 6.332121	 21.763600	 82.605880	-24.209160	 2.384659	 28.388700	-0.000001	 15.935070	-1.017315	-19.280180	 10.130260	 14.965960	-9.442040	 19.214230	-7.474662	 19.468490	-91.776150	 78.527350	 180.000000	-51.470880	 31.462720	-61.959320	-45.640350	 13.533060	-28.313530	-43.882760	-38.985520	-25.615860	-4.130354	 21.526190	 0.991307	-5.167926	 0.731697	 3.519349	-1.378229	 35.397820	-2.634230	 15.156100	 5.887759	-5.105756	 10.359090	-18.686820	-3.858918	 89.782110	 78.203870	 180.000000	-56.164570	-4.364733	 88.119050	 8.916333	 3.137882	 129.681400	-4.386079	 11.346660	 19.313630	 5.716295	 19.173350	-3.684826	 5.027458	 0.246833	-9.377971	-2.350882	 35.473990	 5.254307
-0.725236	-0.026454	 1.253876	 166.709000	-7.591484	 2.470821	-5.407138	 1.032882	 179.771800	-0.956564	-32.415080	-1.297909	-50.090580	 81.806280	 38.212760	-2.385833	 28.452760	 0.000004	-23.884040	-4.936371	-169.634000	 11.528270	-33.409010	 6.532742	 22.217360	 82.690430	-24.863280	 2.384659	 28.388700	-0.000001	 17.651960	-1.705732	-19.334430	 11.358470	 15.344830	-9.961188	 19.071040	-8.286822	 19.571260	-91.776180	 78.527420	-180.000000	-52.956960	 31.000820	-69.167710	-47.954400	 6.730499	-15.561460	-44.703090	-38.995990	-25.915390	-4.130354	 21.526190	 0.991307	-5.167926	 0.731697	 3.519349	-1.378229	 35.397820	-2.634230	 14.994700	 5.504637	-5.139927	 10.147360	-19.216610	-4.092757	 89.782140	 78.203850	 180.000000	-52.861720	-3.654564	 90.645670	 9.969687	 1.874820	 126.309600	-6.435708	 11.338320	 19.339100	 5.716295	 19.173350	-3.684826	 5.027458	 0.246833	-9.377971	-2.350882	 35.473990	 5.254307
